<?xml version="1.0" standalone="no"?><!DOCTYPE svg PUBLIC "-//W3C//DTD SVG 1.1//EN" "http://www.w3.org/Graphics/SVG/1.1/DTD/svg11.dtd"><svg viewBox="0 0 1024 1024" version="1.1" xmlns="http://www.w3.org/2000/svg" xmlns:xlink="http://www.w3.org/1999/xlink" width="128" height="128"><path d="M212.194304 726.972416c33.760256 33.760256 73.08288 60.269568 116.876288 78.792704 45.357056 19.18464 93.518848 28.911616 143.147008 28.911616s97.788928-9.728 143.145984-28.911616c25.648128-10.848256 49.750016-24.457216 72.112128-40.63744l156.345344 156.484608c6.677504 6.683648 15.43168 10.025984 24.18688 10.025984 8.74496 0 17.490944-3.334144 24.1664-10.00448 13.35808-13.345792 13.36832-34.994176 0.021504-48.35328L739.03616 719.985664c30.533632-32.160768 54.736896-69.082112 71.99744-109.889536 19.183616-45.357056 28.911616-93.518848 28.911616-143.147008s-9.728-97.789952-28.911616-143.147008c-18.523136-43.792384-45.033472-83.115008-78.792704-116.876288-33.76128-33.760256-73.083904-60.270592-116.876288-78.793728-45.35808-19.18464-93.518848-28.911616-143.147008-28.911616s-97.789952 9.728-143.147008 28.911616c-43.793408 18.523136-83.116032 45.033472-116.876288 78.793728s-60.269568 73.083904-78.792704 116.876288c-19.183616 45.357056-28.911616 93.518848-28.911616 143.147008s9.728 97.789952 28.911616 143.147008C151.923712 653.888512 178.434048 693.21216 212.194304 726.972416zM260.547584 255.279104c56.539136-56.539136 131.710976-87.676928 211.670016-87.676928 79.958016 0 155.13088 31.137792 211.670016 87.676928s87.675904 131.710976 87.675904 211.670016S740.425728 622.08 683.887616 678.619136c-56.539136 56.539136-131.712 87.676928-211.670016 87.676928-79.95904 0-155.13088-31.136768-211.670016-87.675904s-87.675904-131.712-87.675904-211.670016S204.008448 311.81824 260.547584 255.279104z"></path></svg>
